<?xml version="1.0" encoding="UTF-8"?>
<svg width="98px" height="50px" viewBox="0 0 98 50" version="1.1" xmlns="http://www.w3.org/2000/svg" xmlns:xlink="http://www.w3.org/1999/xlink">
    <!-- Generator: Sketch 50 (54983) - http://www.bohemiancoding.com/sketch -->
    <title>logo</title>
    <desc>Created with Sketch.</desc>
    <defs>
        <polygon id="path-1" points="98 0 98 50 0 50 0 0 98 0"></polygon>
    </defs>
    <g id="Page-1" stroke="none" stroke-width="1" fill="none" fill-rule="evenodd">
        <g id="decoupe" transform="translate(-162.000000, -31.000000)">
            <g id="logo" transform="translate(162.000000, 31.000000)">
                <mask id="mask-2" fill="white">
                    <use xlink:href="#path-1"></use>
                </mask>
                <g id="Clip-2"></g>
                <path d="M25.6577878,22.5031874 C25.656528,22.518187 25.6552682,22.5331867 25.6540083,22.5481863 C25.5683396,23.3894153 25.5255052,24.2456439 25.5255052,25.0906227 C25.5255052,28.3867903 26.1831388,31.59921 27.4807682,34.6353841 C27.6836016,35.1166221 27.9065923,35.59911 28.1497403,36.079098 L17.560832,36.079098 L25.6577878,22.5031874 Z M58.7826143,36.6265843 C56.3939682,38.2740431 53.8994961,39.1090223 51.3647092,39.1090223 C49.616059,39.1090223 47.7968581,38.7127822 45.9549802,37.9340516 C43.437831,36.8765781 41.3679231,35.1378716 39.8006891,32.7679308 C38.5206973,30.8379791 37.7647966,28.6680333 37.5544043,26.321842 C37.5166092,25.8718532 37.4964519,25.4056149 37.4964519,24.9381265 C37.4964519,23.0769231 37.8466859,21.2682183 38.5358153,19.5620109 C38.8986476,18.6695333 39.3244716,17.8545536 39.7943899,17.1470713 C40.310922,16.3883403 40.8917057,15.6871078 41.5228827,15.0633734 L41.8126446,14.7746306 L41.8126446,14.7496313 C42.4211446,14.1746456 43.0145267,13.6971576 43.5852317,13.3246669 L43.635625,13.2896678 C43.780506,13.1834204 44.0879056,12.9821754 44.7329408,12.6334342 C45.2645909,12.3459414 45.682856,12.1321967 45.9700982,11.9972001 C47.7036304,11.2822179 49.4573199,10.919727 51.1795135,10.919727 C52.9294236,10.919727 54.7196483,11.2959676 56.4909755,12.0321992 C59.95678,13.5096623 62.3756621,15.9858504 63.8887232,19.60076 C64.575333,21.2457189 64.9230473,23.0506737 64.9230473,24.9681258 C64.9230473,30.0254994 62.9173909,33.8366541 58.7914331,36.6203345 L58.7826143,36.6265843 Z M83.6467064,36.079098 L83.6467064,2.639934 L72.9280352,2.639934 L72.9280352,11.5972101 C72.8196894,11.4284643 72.7063043,11.2597185 72.5916594,11.0922227 C70.6779709,8.31104222 68.2742068,5.959851 65.4332802,4.0961476 C61.1599218,1.37746556 56.3851494,0 51.2425053,0 C45.9940351,0 41.1965856,1.37871553 36.9811796,4.0998975 L36.5314187,4.39114022 L36.5314187,4.43113922 C36.4772458,4.46613835 36.4243328,4.50363741 36.3714198,4.5398865 L37.5040109,2.639934 L6.93538849,2.639934 L4.73445776,12.2996925 L20.1182959,12.2996925 L1.925027,42.8164296 L0,46.0150996 L34.1994652,46.0150996 L34.6252892,44.080148 C35.4038669,44.7263818 36.1824446,45.2938677 36.9509436,45.7763556 C39.6747056,47.5888103 42.7814573,48.838779 46.1792307,49.4912627 C47.9001645,49.8287543 49.623618,50 51.3017175,50 C54.5810665,50 57.8389983,49.358766 60.9848049,48.0937977 C65.769656,46.1763456 69.6738829,43.0751731 72.5916594,38.8752781 C72.7063043,38.7090323 72.8196894,38.5427864 72.9280352,38.3740406 L72.9280352,46.0150996 L98,46.0150996 L98,36.079098 L83.6467064,36.079098 Z" id="Fill-1" fill="#000000" mask="url(#mask-2)"></path>
            </g>
        </g>
    </g>
</svg>